




[b][color=blue][i]Live Songs was the Canadian singer-songwriter Leonard Cohen's fourth album, released during the three-year silence between Songs of Love and Hate and New Skin for the Old Ceremony. It is a live album, or, more accurately (and as the title suggests), a compilation of live recordings, performed mostly in Europe in 1970 and 1972. Cohen is backed by a medium-sized, country-influenced group, which includes guitarist/fiddler Charlie Daniels and vocalist "Jennifer Warren", who would soon become famous as Jennifer Warnes, among other things a popular interpreter of Cohen's songs.

The album consists mostly of reinterpretations (often with additional or significantly altered lyrics) of songs from Cohen's second album, Songs From a Room ("Nancy" is a version of "Seems So Long Ago, Nancy", and "Improvisation" is an extended instrumental guitar trio version of the vamp from "You Know Who I Am", which is also featured). Neither Songs of Leonard Cohen nor the then-recent Songs of Love and Hate (which featured a live track, "Let's Sing Another Song, Boys", culled from the same tour as the 1970 recordings here) are represented. The other tracks are a cover of the undergraduate folk standard "Passing Through", and two new compositions: "Please Don't Pass Me By (A Disgrace)" (a thirteen-minute singalong recorded in 1970) and "Minute Prologue". A "bonus" track, "Queen Victoria", was recorded by Cohen alone in his Tennessee hotel room in 1972.

At the beginning of a Paris, France performance of "Bird on the Wire", Cohen recites the first verse of a French translation of the song's lyric.

Live Songs was Cohen's longest album to date, at nearly fifty minutes.

All songs by Leonard Cohen except "Passing Through" (by Dick Blakeslee, arranged by Cohen). All recorded in 1972 except "Please Don't Pass Me By (A Disgrace)" and "Tonight Will Be Fine" in 1970. Location of recording in parentheses.

[/i][/color][/b]




[IMG]http://img813.imageshack.us/img813/8568/booklet1.jpg[/IMG]




[b][color=blue][i]Review	by Gautam Baksi

Although never released in the U.S. (except on vinyl), Live Songs is an integral part of the early Cohen chronicles. The CD contains ten live recordings, largely from a handful of European concerts between 1970 and 1972, through which time Cohen had effectively made his transition from brooding poet to brooding poet with guitar. By 1973, Cohen's cult following had swelled to a peak and already began a slight decline. The release includes several new songs, including "Passing Through," "You Know Who I Am," and "Tonight Will Be Fine," all of which skillfully combine heavy doses of erotica, love, and depression. Live Songs also includes a handful of his most popular tracks from the 1969 release, Songs From a Room. "Bird on a Wire" and "Story of Isaac" are both played admirably live, though neither adds significantly to their studio versions. The album's unmistakable climax lies in the 13-minute epic, "Please Don't Pass Me By," a tale of his personal descent into hell baring such pain and suffering that Cohen rarely sang the song again. The less moving, but still powerful "Queen Victoria" finishes off the CD and went on to become a fan favorite. Live Songs is certainly not an introductory CD, but for those who've formed a friendship with the words and wisdom of Leonard Cohen, this album finds him raw and naked in one of his finest hours. 



Side 1 (Recorded in 1972)

  1. "Minute Prologue" – 1:12 (London)
  2. "Passing Through" – 4:05 (London)
  3. "You Know Who I Am" – 5:22 (Brussels)
  4. "Bird on the Wire" – 4:27 (Paris)
  5. "Nancy" – 3:48 (London)
  6. "Improvisation" – 3:17 (Paris)

Side 2 (Recorded in 1970 and 1972)

  1. "Story of Isaac" – 3:56 (Berlin)
  2. "Please Don't Pass Me By (A Disgrace)" – 13:00 (London)
  3. "Tonight Will Be Fine" – 6:06 (Isle of Wight)
  4. "Queen Victoria" – 3:28 (Tennessee)
[/i][/color][/b]



[CODE]EAC extraction logfile from 26. April 2006, 11:14 for CD
Leonard Cohen / Live songs

Used drive  : HL-DT-STDVDRAM GSA-4160B   Adapter: 1  ID: 0
Read mode   : Secure with NO C2, accurate stream, disable cache
Read offset correction : 667
Overread into Lead-In and Lead-Out : No

Used output format : Internal WAV Routines
                     44.100 Hz; 16 Bit; Stereo

Other options      : 
    Fill up missing offset samples with silence : Yes
    Delete leading and trailing silent blocks : No
    Native Win32 interface for Win NT & 2000


Track  1
     Filename H:\Temp\Leonard Cohen - Live Songs (1973) [FLAC]\01 - Minute Prologue.wav

     Pre-gap length  0:00:02.00

     Peak level 58.0 %
     Track quality 100.0 %
     Test CRC C2FF1D74
     Copy CRC C2FF1D74
     Copy OK

Track  2
     Filename H:\Temp\Leonard Cohen - Live Songs (1973) [FLAC]\02 - Passing Through.wav

     Pre-gap length  0:00:01.61

     Peak level 74.1 %
     Track quality 100.0 %
     Test CRC 358D6D60
     Copy CRC 358D6D60
     Copy OK

Track  3
     Filename H:\Temp\Leonard Cohen - Live Songs (1973) [FLAC]\03 - You Know Who I Am.wav

     Pre-gap length  0:00:02.24

     Peak level 65.0 %
     Track quality 100.0 %
     Test CRC E8210EE3
     Copy CRC E8210EE3
     Copy OK

Track  4
     Filename H:\Temp\Leonard Cohen - Live Songs (1973) [FLAC]\04 - Bird on the Wire.wav

     Pre-gap length  0:00:02.01

     Peak level 93.8 %
     Track quality 100.0 %
     Test CRC BE54EF3B
     Copy CRC BE54EF3B
     Copy OK

Track  5
     Filename H:\Temp\Leonard Cohen - Live Songs (1973) [FLAC]\05 - Nancy.wav

     Pre-gap length  0:00:02.00

     Peak level 66.0 %
     Track quality 100.0 %
     Test CRC 4C9DC71F
     Copy CRC 4C9DC71F
     Copy OK

Track  6
     Filename H:\Temp\Leonard Cohen - Live Songs (1973) [FLAC]\06 - Improvisation.wav

     Pre-gap length  0:00:02.06

     Peak level 51.7 %
     Track quality 100.0 %
     Test CRC 4A9ECD8F
     Copy CRC 4A9ECD8F
     Copy OK

Track  7
     Filename H:\Temp\Leonard Cohen - Live Songs (1973) [FLAC]\07 - Story of Isaac.wav

     Pre-gap length  0:00:02.33

     Peak level 68.2 %
     Track quality 100.0 %
     Test CRC 127ADE7A
     Copy CRC 127ADE7A
     Copy OK

Track  8
     Filename H:\Temp\Leonard Cohen - Live Songs (1973) [FLAC]\08 - Please Don't Pass Me By (A Disgrace).wav

     Pre-gap length  0:00:01.97

     Peak level 77.2 %
     Track quality 99.9 %
     Test CRC 2A5B352B
     Copy CRC 2A5B352B
     Copy OK

Track  9
     Filename H:\Temp\Leonard Cohen - Live Songs (1973) [FLAC]\09 - Tonight Will Be Fine.wav

     Pre-gap length  0:00:02.33

     Peak level 68.5 %
     Track quality 99.9 %
     Test CRC 134CAB7D
     Copy CRC 134CAB7D
     Copy OK

Track 10
     Filename H:\Temp\Leonard Cohen - Live Songs (1973) [FLAC]\10 - Queen Victoria.wav

     Pre-gap length  0:00:01.58

     Peak level 49.0 %
     Track quality 100.0 %
     Test CRC D29C5F5B
     Copy CRC D29C5F5B
     Copy OK

No errors occured


End of status report
[/CODE]



[i][color=#000099][b]All credits go to SonicReducer  for the original upload on what
[/b][/color][/i]



[IMG]http://img163.imageshack.us/img163/5909/trayk.jpg[/IMG]